<svg width="146" height="32" viewBox="0 0 146 32" fill="none" xmlns="http://www.w3.org/2000/svg">
<g clip-path="url(#clip0_19_30)">
<path d="M11.9601 31.76C10.0934 31.76 8.44006 31.44 7.00006 30.8C5.58673 30.16 4.40006 29.3067 3.44006 28.24C2.50673 27.1467 1.78673 25.9333 1.28006 24.6C0.800059 23.24 0.560059 21.8533 0.560059 20.44V19.64C0.560059 18.1733 0.800059 16.7733 1.28006 15.44C1.78673 14.08 2.50673 12.8667 3.44006 11.8C4.37339 10.7333 5.53339 9.89337 6.92006 9.28004C8.33339 8.64004 9.93339 8.32004 11.7201 8.32004C14.0668 8.32004 16.0401 8.85337 17.6401 9.92004C19.2668 10.96 20.5068 12.3333 21.3601 14.04C22.2134 15.72 22.6401 17.56 22.6401 19.56V21.72H3.24006V18.08H18.7601L16.6801 19.76C16.6801 18.4533 16.4934 17.3333 16.1201 16.4C15.7468 15.4667 15.1868 14.76 14.4401 14.28C13.7201 13.7733 12.8134 13.52 11.7201 13.52C10.6001 13.52 9.65339 13.7733 8.88006 14.28C8.10673 14.7867 7.52006 15.5333 7.12006 16.52C6.72006 17.48 6.52006 18.6667 6.52006 20.08C6.52006 21.3867 6.70673 22.5333 7.08006 23.52C7.45339 24.48 8.04006 25.2267 8.84006 25.76C9.64006 26.2933 10.6801 26.56 11.9601 26.56C13.1334 26.56 14.0934 26.3333 14.8401 25.88C15.5868 25.4267 16.0934 24.8667 16.3601 24.2H22.2401C21.9201 25.6667 21.2934 26.9733 20.3601 28.12C19.4268 29.2667 18.2534 30.16 16.8401 30.8C15.4268 31.44 13.8001 31.76 11.9601 31.76ZM37.401 31.76C34.761 31.76 32.5344 31.3467 30.721 30.52C28.9077 29.6667 27.5344 28.52 26.601 27.08C25.6677 25.6133 25.201 23.9333 25.201 22.04H31.561C31.561 22.7867 31.761 23.48 32.161 24.12C32.5877 24.76 33.2277 25.28 34.081 25.68C34.9344 26.0533 36.041 26.24 37.401 26.24C38.6277 26.24 39.6544 26.08 40.481 25.76C41.3077 25.44 41.9344 25 42.361 24.44C42.7877 23.8533 43.001 23.1867 43.001 22.44C43.001 21.5067 42.601 20.7733 41.801 20.24C41.001 19.68 39.7077 19.32 37.921 19.16L35.721 18.96C32.8144 18.72 30.4944 17.8133 28.761 16.24C27.0277 14.6667 26.161 12.5867 26.161 10C26.161 8.13337 26.601 6.52004 27.481 5.16004C28.3877 3.80004 29.641 2.76004 31.241 2.04004C32.841 1.29337 34.7344 0.920044 36.921 0.920044C39.2144 0.920044 41.1744 1.32004 42.801 2.12004C44.4544 2.89337 45.721 4.00004 46.601 5.44004C47.481 6.85337 47.921 8.52004 47.921 10.44H41.521C41.521 9.72004 41.3477 9.06671 41.001 8.48004C40.6544 7.86671 40.1344 7.37337 39.441 7.00004C38.7744 6.62671 37.9344 6.44004 36.921 6.44004C35.961 6.44004 35.1477 6.60004 34.481 6.92004C33.841 7.24004 33.361 7.68004 33.041 8.24004C32.721 8.77337 32.561 9.36004 32.561 10C32.561 10.8267 32.8544 11.5467 33.441 12.16C34.0277 12.7733 34.9877 13.1333 36.321 13.24L38.561 13.44C40.6944 13.6267 42.5744 14.0933 44.201 14.84C45.8277 15.56 47.0944 16.56 48.001 17.84C48.9344 19.0933 49.401 20.6267 49.401 22.44C49.401 24.3067 48.9077 25.9467 47.921 27.36C46.961 28.7467 45.5877 29.8267 43.801 30.6C42.0144 31.3733 39.881 31.76 37.401 31.76ZM63.5207 31.28C61.3074 31.28 59.5207 31.0133 58.1607 30.48C56.8007 29.92 55.8007 29 55.1607 27.72C54.5474 26.4133 54.2407 24.6533 54.2407 22.44V3.16005H60.2007V22.68C60.2007 23.72 60.4674 24.52 61.0007 25.08C61.5607 25.6133 62.3474 25.88 63.3607 25.88H66.6007V31.28H63.5207ZM50.9207 13.76V9.08004H66.6007V13.76H50.9207ZM81.5064 31.76C79.5864 31.76 77.8797 31.4667 76.3864 30.88C74.893 30.2667 73.6264 29.44 72.5864 28.4C71.573 27.36 70.7997 26.1733 70.2664 24.84C69.733 23.48 69.4664 22.0533 69.4664 20.56V19.64C69.4664 18.12 69.733 16.68 70.2664 15.32C70.8264 13.9333 71.6264 12.72 72.6664 11.68C73.733 10.64 75.013 9.82671 76.5064 9.24004C77.9997 8.62671 79.6664 8.32004 81.5064 8.32004C83.3997 8.32004 85.0797 8.62671 86.5464 9.24004C88.0397 9.82671 89.3064 10.64 90.3464 11.68C91.3864 12.72 92.1864 13.9333 92.7464 15.32C93.3064 16.68 93.5864 18.12 93.5864 19.64V20.56C93.5864 22.0533 93.3197 23.48 92.7864 24.84C92.253 26.1733 91.4664 27.36 90.4264 28.4C89.413 29.44 88.1597 30.2667 86.6664 30.88C85.173 31.4667 83.453 31.76 81.5064 31.76ZM81.5064 26.36C82.7597 26.36 83.7997 26.0933 84.6264 25.56C85.453 25.0267 86.0797 24.28 86.5064 23.32C86.9597 22.36 87.1864 21.2933 87.1864 20.12C87.1864 18.8667 86.9597 17.7733 86.5064 16.84C86.053 15.88 85.3997 15.12 84.5464 14.56C83.7197 14 82.7064 13.72 81.5064 13.72C80.333 13.72 79.3197 14 78.4663 14.56C77.613 15.12 76.9597 15.88 76.5064 16.84C76.0797 17.7733 75.8664 18.8667 75.8664 20.12C75.8664 21.2933 76.0797 22.36 76.5064 23.32C76.933 24.28 77.573 25.0267 78.4264 25.56C79.2797 26.0933 80.3064 26.36 81.5064 26.36ZM107.893 31.76C105.999 31.76 104.346 31.4533 102.933 30.84C101.546 30.2 100.386 29.3467 99.4529 28.28C98.5196 27.2133 97.8262 26.0133 97.3729 24.68C96.9196 23.32 96.6929 21.92 96.6929 20.48V19.72C96.6929 18.2267 96.9329 16.8 97.4129 15.44C97.8929 14.0533 98.5996 12.8267 99.5329 11.76C100.466 10.6933 101.626 9.85337 103.013 9.24004C104.426 8.62671 106.039 8.32004 107.853 8.32004C109.826 8.32004 111.573 8.70671 113.093 9.48004C114.613 10.2267 115.826 11.28 116.733 12.64C117.639 14 118.146 15.56 118.253 17.32H111.973C111.866 16.3333 111.466 15.5067 110.773 14.84C110.106 14.1467 109.133 13.8 107.853 13.8C106.786 13.8 105.893 14.0667 105.173 14.6C104.479 15.1333 103.959 15.8667 103.613 16.8C103.266 17.7333 103.093 18.84 103.093 20.12C103.093 21.2933 103.253 22.36 103.573 23.32C103.893 24.2533 104.399 24.9867 105.093 25.52C105.813 26.0267 106.746 26.28 107.893 26.28C108.746 26.28 109.466 26.1333 110.053 25.84C110.666 25.52 111.146 25.0933 111.493 24.56C111.866 24 112.093 23.36 112.173 22.64H118.413C118.333 24.4533 117.826 26.0533 116.893 27.44C115.959 28.8 114.719 29.8667 113.173 30.64C111.626 31.3867 109.866 31.76 107.893 31.76ZM137.946 31L131.026 20.76H127.946L136.866 9.08004H143.586L135.186 19.96L135.266 16.84L145.146 31H137.946ZM122.506 31V1.80004H128.906V31H122.506Z" fill="#0062FF"/>
</g>
<defs>
<clipPath id="clip0_19_30">
<rect width="146" height="32" fill="white"/>
</clipPath>
</defs>
</svg>
