<svg width="24" height="24" viewBox="0 0 24 24" fill="none" xmlns="http://www.w3.org/2000/svg">
<g clip-path="url(#clip0_122_613)">
<path d="M18.68 1.5H5.32C3.21027 1.5 1.5 3.21027 1.5 5.32V18.68C1.5 20.7897 3.21027 22.5 5.32 22.5H18.68C20.7897 22.5 22.5 20.7897 22.5 18.68V5.32C22.5 3.21027 20.7897 1.5 18.68 1.5Z" stroke="black" stroke-width="2" stroke-miterlimit="10"/>
<path d="M12 16.77C14.6344 16.77 16.77 14.6344 16.77 12C16.77 9.36558 14.6344 7.22998 12 7.22998C9.36558 7.22998 7.22998 9.36558 7.22998 12C7.22998 14.6344 9.36558 16.77 12 16.77Z" stroke="black" stroke-width="2" stroke-miterlimit="10"/>
<path d="M18.2 7.23C18.9898 7.23 19.63 6.58976 19.63 5.8C19.63 5.01023 18.9898 4.37 18.2 4.37C17.4103 4.37 16.77 5.01023 16.77 5.8C16.77 6.58976 17.4103 7.23 18.2 7.23Z" fill="black"/>
</g>
<defs>
<clipPath id="clip0_122_613">
<rect width="24" height="24" fill="white"/>
</clipPath>
</defs>
</svg>
