<svg width="24" height="24" viewBox="0 0 24 24" fill="none" xmlns="http://www.w3.org/2000/svg">
<path d="M3.40997 7.22998H20.59V19.64C20.59 20.3985 20.2887 21.126 19.7523 21.6623C19.2159 22.1987 18.4885 22.5 17.73 22.5H6.26997C5.51145 22.5 4.784 22.1987 4.24765 21.6623C3.71129 21.126 3.40997 20.3985 3.40997 19.64V7.22998Z" stroke="black" stroke-width="2" stroke-miterlimit="10"/>
<path d="M7.22998 10.09V6.27C7.22998 5.00492 7.73253 3.79165 8.62708 2.8971C9.52163 2.00255 10.7349 1.5 12 1.5C13.2651 1.5 14.4783 2.00255 15.3729 2.8971C16.2674 3.79165 16.77 5.00492 16.77 6.27V10.09" stroke="black" stroke-width="2" stroke-miterlimit="10"/>
</svg>
